<svg width="48" height="65" viewBox="0 0 48 65" fill="none" xmlns="http://www.w3.org/2000/svg">
<path fill-rule="evenodd" clip-rule="evenodd" d="M22.5782 4.4978C23.2001 4.13873 23.9663 4.13877 24.5882 4.4978L41.8987 14.492C42.5207 14.8511 42.9037 15.5147 42.9037 16.2327V24.227H38.9037V17.3817L23.5832 8.53637L10.2627 16.227L41.8887 34.4863C43.2292 35.2602 43.2282 37.1943 41.8887 37.9677L24.5882 47.9561C23.9663 48.3152 23.2001 48.3152 22.5782 47.9561L5.2677 37.9619C5.14581 37.8915 4.87643 37.721 4.64341 37.3988C4.37931 37.0336 4.2627 36.6158 4.2627 36.2224V28.227H8.2627V35.0718L23.5832 43.9176L36.9037 36.227L5.2777 17.9677C3.9377 17.194 3.9377 15.2599 5.2777 14.4863L22.5782 4.4978Z" fill="#F2F2F2"/>
<path fill-rule="evenodd" clip-rule="evenodd" d="M20.0984 16.2044L23.5869 14.2109V10.7109L14.0752 16.2179L30.3426 25.5135V22.2109L20.0984 16.2044Z" fill="#F2F2F2"/>
<path fill-rule="evenodd" clip-rule="evenodd" d="M27.0861 36.2907L23.5977 38.2842V41.7842L33.1094 36.2773L16.842 26.9816V30.2842L27.0861 36.2907Z" fill="#F2F2F2"/>
<path fill-rule="evenodd" clip-rule="evenodd" d="M20.5831 0.803848C22.4395 -0.267949 24.7267 -0.267949 26.5831 0.803847L44.0997 10.9171C45.9561 11.9889 47.0997 13.9697 47.0997 16.1132V36.3397C47.0997 38.4833 45.9561 40.4641 44.0997 41.5359L26.5831 51.6491C24.7267 52.7209 22.4395 52.7209 20.5831 51.6491L3.06641 41.5359C1.21 40.4641 0.0664062 38.4833 0.0664062 36.3397V16.1132C0.0664062 13.9697 1.21 11.9889 3.06641 10.9171L20.5831 0.803848ZM25.5831 2.5359C24.3455 1.82137 22.8207 1.82137 21.5831 2.5359L4.06641 12.6491C2.8288 13.3637 2.06641 14.6842 2.06641 16.1132V36.3397C2.06641 37.7688 2.8288 39.0893 4.06641 39.8038L21.5831 49.9171C22.8207 50.6316 24.3455 50.6316 25.5831 49.9171L43.0997 39.8038C44.3373 39.0893 45.0997 37.7688 45.0997 36.3397V16.1132C45.0997 14.6842 44.3373 13.3637 43.0997 12.6491L25.5831 2.5359Z" fill="#F2F2F2"/>
<path d="M1.4764 63.0931H3.2684V64.1491H0.108398V58.5331H1.4764V63.0931Z" fill="#F2F2F2"/>
<path d="M5.2889 59.6291V60.7651H7.1209V61.8211H5.2889V63.0531H7.3609V64.1491H3.9209V58.5331H7.3609V59.6291H5.2889Z" fill="#F2F2F2"/>
<path d="M15.2163 58.5331L13.2243 64.1491H11.5123L9.52034 58.5331H10.9763L12.3683 62.7731L13.7683 58.5331H15.2163Z" fill="#F2F2F2"/>
<path d="M17.1561 58.5331V64.1491H15.7881V58.5331H17.1561Z" fill="#F2F2F2"/>
<path d="M19.5155 59.6291V60.7651H21.3475V61.8211H19.5155V63.0531H21.5875V64.1491H18.1475V58.5331H21.5875V59.6291H19.5155Z" fill="#F2F2F2"/>
<path d="M26.5156 58.5331V59.6291H25.0276V64.1491H23.6596V59.6291H22.1716V58.5331H26.5156Z" fill="#F2F2F2"/>
<path d="M30.9295 64.2051C30.5188 64.2051 30.1508 64.1385 29.8255 64.0051C29.5001 63.8718 29.2388 63.6745 29.0415 63.4131C28.8495 63.1518 28.7481 62.8371 28.7375 62.4691H30.1935C30.2148 62.6771 30.2868 62.8371 30.4095 62.9491C30.5321 63.0558 30.6921 63.1091 30.8895 63.1091C31.0921 63.1091 31.2521 63.0638 31.3695 62.9731C31.4868 62.8771 31.5455 62.7465 31.5455 62.5811C31.5455 62.4425 31.4975 62.3278 31.4015 62.2371C31.3108 62.1465 31.1961 62.0718 31.0575 62.0131C30.9241 61.9545 30.7321 61.8878 30.4815 61.8131C30.1188 61.7011 29.8228 61.5891 29.5935 61.4771C29.3641 61.3651 29.1668 61.1998 29.0015 60.9811C28.8361 60.7625 28.7535 60.4771 28.7535 60.1251C28.7535 59.6025 28.9428 59.1945 29.3215 58.9011C29.7001 58.6025 30.1935 58.4531 30.8015 58.4531C31.4201 58.4531 31.9188 58.6025 32.2975 58.9011C32.6761 59.1945 32.8788 59.6051 32.9055 60.1331H31.4255C31.4148 59.9518 31.3481 59.8105 31.2255 59.7091C31.1028 59.6025 30.9455 59.5491 30.7535 59.5491C30.5881 59.5491 30.4548 59.5945 30.3535 59.6851C30.2521 59.7705 30.2015 59.8958 30.2015 60.0611C30.2015 60.2425 30.2868 60.3838 30.4575 60.4851C30.6281 60.5865 30.8948 60.6958 31.2575 60.8131C31.6201 60.9358 31.9135 61.0531 32.1375 61.1651C32.3668 61.2771 32.5641 61.4398 32.7295 61.6531C32.8948 61.8665 32.9775 62.1411 32.9775 62.4771C32.9775 62.7971 32.8948 63.0878 32.7295 63.3491C32.5695 63.6105 32.3348 63.8185 32.0255 63.9731C31.7161 64.1278 31.3508 64.2051 30.9295 64.2051Z" fill="#F2F2F2"/>
<path d="M35.1873 58.5331V64.1491H33.8193V58.5331H35.1873Z" fill="#F2F2F2"/>
<path d="M41.2027 64.1491H39.8347L37.5467 60.6851V64.1491H36.1787V58.5331H37.5467L39.8347 62.0131V58.5331H41.2027V64.1491Z" fill="#F2F2F2"/>
<path d="M47.0583 58.5331V64.1491H45.6903V61.8371H43.5623V64.1491H42.1943V58.5331H43.5623V60.7331H45.6903V58.5331H47.0583Z" fill="#F2F2F2"/>
</svg>
